solid OpenSCAD_Model
  facet normal -1 0 0
    outer loop
      vertex 0 0 0
      vertex 0 10 2
      vertex 0 10 0
    endloop
  endfacet
  facet normal -1 -0 0
    outer loop
      vertex 0 10 2
      vertex 0 0 0
      vertex 0 0 2
    endloop
  endfacet
  facet normal 0 0 1
    outer loop
      vertex 10 10 2
      vertex 6.24698 6.56366 2
      vertex 7 5 2
    endloop
  endfacet
  facet normal 0 0 1
    outer loop
      vertex 10 10 2
      vertex 4.55496 6.94986 2
      vertex 6.24698 6.56366 2
    endloop
  endfacet
  facet normal 0 0 1
    outer loop
      vertex 3.19806 5.86777 2
      vertex 0 10 2
      vertex 3.19806 4.13223 2
    endloop
  endfacet
  facet normal 0 0 1
    outer loop
      vertex 4.55496 6.94986 2
      vertex 0 10 2
      vertex 3.19806 5.86777 2
    endloop
  endfacet
  facet normal -0 0 1
    outer loop
      vertex 0 10 2
      vertex 4.55496 6.94986 2
      vertex 10 10 2
    endloop
  endfacet
  facet normal -0 0 1
    outer loop
      vertex 17.4635 8.42658 2
      vertex 31.7865 7.88168 2
      vertex 17.4635 21.5734 2
    endloop
  endfacet
  facet normal 0 0 1
    outer loop
      vertex 31.7865 7.88168 2
      vertex 17.4635 8.42658 2
      vertex 18.5 7 2
    endloop
  endfacet
  facet normal 0 0 1
    outer loop
      vertex 10 10 2
      vertex 17.4635 21.5734 2
      vertex 15.7865 22.1183 2
    endloop
  endfacet
  facet normal 0 0 1
    outer loop
      vertex 17.4635 21.5734 2
      vertex 10 10 2
      vertex 17.4635 8.42658 2
    endloop
  endfacet
  facet normal 0 0 1
    outer loop
      vertex 33.4635 8.42658 2
      vertex 40 10 2
      vertex 33.4635 21.5734 2
    endloop
  endfacet
  facet normal 0 0 1
    outer loop
      vertex 40 10 2
      vertex 33.4635 8.42658 2
      vertex 34.5 7 2
    endloop
  endfacet
  facet normal 0 0 1
    outer loop
      vertex 31.7865 22.1183 2
      vertex 33.4635 8.42658 2
      vertex 33.4635 21.5734 2
    endloop
  endfacet
  facet normal 0 0 1
    outer loop
      vertex 33.4635 8.42658 2
      vertex 31.7865 22.1183 2
      vertex 31.7865 7.88168 2
    endloop
  endfacet
  facet normal 0 0 1
    outer loop
      vertex 40 30 2
      vertex 34.5 23 2
      vertex 40 10 2
    endloop
  endfacet
  facet normal 0 0 1
    outer loop
      vertex 40 30 2
      vertex 33.4635 24.4266 2
      vertex 34.5 23 2
    endloop
  endfacet
  facet normal 0 0 1
    outer loop
      vertex 40 30 2
      vertex 31.7865 23.8817 2
      vertex 33.4635 24.4266 2
    endloop
  endfacet
  facet normal -0 0 1
    outer loop
      vertex 18.5 23 2
      vertex 31.7865 22.1183 2
      vertex 31.7865 23.8817 2
    endloop
  endfacet
  facet normal 0 0 1
    outer loop
      vertex 17.4635 21.5734 2
      vertex 31.7865 22.1183 2
      vertex 18.5 23 2
    endloop
  endfacet
  facet normal 0 0 1
    outer loop
      vertex 31.7865 22.1183 2
      vertex 17.4635 21.5734 2
      vertex 31.7865 7.88168 2
    endloop
  endfacet
  facet normal -0 0 1
    outer loop
      vertex 17.4635 24.4266 2
      vertex 31.7865 23.8817 2
      vertex 40 30 2
    endloop
  endfacet
  facet normal 0 0 1
    outer loop
      vertex 31.7865 23.8817 2
      vertex 17.4635 24.4266 2
      vertex 18.5 23 2
    endloop
  endfacet
  facet normal 0 0 1
    outer loop
      vertex 10 30 2
      vertex 15.7865 22.1183 2
      vertex 15.7865 23.8817 2
    endloop
  endfacet
  facet normal 0 0 1
    outer loop
      vertex 17.4635 8.42658 2
      vertex 10 10 2
      vertex 15.7865 7.88168 2
    endloop
  endfacet
  facet normal 0 0 1
    outer loop
      vertex 15.7865 22.1183 2
      vertex 10 30 2
      vertex 10 10 2
    endloop
  endfacet
  facet normal 0 0 1
    outer loop
      vertex 17.4635 24.4266 2
      vertex 10 30 2
      vertex 15.7865 23.8817 2
    endloop
  endfacet
  facet normal -0 0 1
    outer loop
      vertex 10 30 2
      vertex 17.4635 24.4266 2
      vertex 40 30 2
    endloop
  endfacet
  facet normal 0 0 1
    outer loop
      vertex 50 10 2
      vertex 47 5 2
      vertex 50 0 2
    endloop
  endfacet
  facet normal 0 0 1
    outer loop
      vertex 50 10 2
      vertex 46.247 6.56366 2
      vertex 47 5 2
    endloop
  endfacet
  facet normal 0 0 1
    outer loop
      vertex 50 10 2
      vertex 44.555 6.94986 2
      vertex 46.247 6.56366 2
    endloop
  endfacet
  facet normal -0 0 1
    outer loop
      vertex 34.5 7 2
      vertex 43.1981 5.86777 2
      vertex 40 10 2
    endloop
  endfacet
  facet normal 0 0 1
    outer loop
      vertex 44.555 6.94986 2
      vertex 40 10 2
      vertex 43.1981 5.86777 2
    endloop
  endfacet
  facet normal -0 0 1
    outer loop
      vertex 40 10 2
      vertex 44.555 6.94986 2
      vertex 50 10 2
    endloop
  endfacet
  facet normal -0 0 1
    outer loop
      vertex 46.247 3.43634 2
      vertex 50 0 2
      vertex 47 5 2
    endloop
  endfacet
  facet normal -0 0 1
    outer loop
      vertex 44.555 3.05014 2
      vertex 50 0 2
      vertex 46.247 3.43634 2
    endloop
  endfacet
  facet normal -0 0 1
    outer loop
      vertex 33.4635 21.5734 2
      vertex 40 10 2
      vertex 34.5 23 2
    endloop
  endfacet
  facet normal 0 0 1
    outer loop
      vertex 43.1981 5.86777 2
      vertex 34.5 7 2
      vertex 43.1981 4.13223 2
    endloop
  endfacet
  facet normal -0 0 1
    outer loop
      vertex 33.4635 5.57341 2
      vertex 43.1981 4.13223 2
      vertex 34.5 7 2
    endloop
  endfacet
  facet normal 0 0 1
    outer loop
      vertex 43.1981 4.13223 2
      vertex 33.4635 5.57341 2
      vertex 44.555 3.05014 2
    endloop
  endfacet
  facet normal 0 0 1
    outer loop
      vertex 44.555 3.05014 2
      vertex 33.4635 5.57341 2
      vertex 50 0 2
    endloop
  endfacet
  facet normal 0 0 1
    outer loop
      vertex 17.4635 5.57341 2
      vertex 33.4635 5.57341 2
      vertex 31.7865 6.11832 2
    endloop
  endfacet
  facet normal 0 0 1
    outer loop
      vertex 31.7865 7.88168 2
      vertex 18.5 7 2
      vertex 31.7865 6.11832 2
    endloop
  endfacet
  facet normal 0 0 1
    outer loop
      vertex 17.4635 5.57341 2
      vertex 31.7865 6.11832 2
      vertex 18.5 7 2
    endloop
  endfacet
  facet normal 0 0 1
    outer loop
      vertex 33.4635 5.57341 2
      vertex 17.4635 5.57341 2
      vertex 50 0 2
    endloop
  endfacet
  facet normal 0 0 1
    outer loop
      vertex 15.7865 7.88168 2
      vertex 10 10 2
      vertex 15.7865 6.11832 2
    endloop
  endfacet
  facet normal 0 0 1
    outer loop
      vertex 7 5 2
      vertex 15.7865 6.11832 2
      vertex 10 10 2
    endloop
  endfacet
  facet normal 0 0 1
    outer loop
      vertex 6.24698 3.43634 2
      vertex 15.7865 6.11832 2
      vertex 7 5 2
    endloop
  endfacet
  facet normal 0 0 1
    outer loop
      vertex 15.7865 6.11832 2
      vertex 6.24698 3.43634 2
      vertex 17.4635 5.57341 2
    endloop
  endfacet
  facet normal 0 0 1
    outer loop
      vertex 0 0 2
      vertex 17.4635 5.57341 2
      vertex 6.24698 3.43634 2
    endloop
  endfacet
  facet normal 0 0 1
    outer loop
      vertex 0 0 2
      vertex 6.24698 3.43634 2
      vertex 4.55496 3.05014 2
    endloop
  endfacet
  facet normal 0 0 1
    outer loop
      vertex 17.4635 5.57341 2
      vertex 0 0 2
      vertex 50 0 2
    endloop
  endfacet
  facet normal 0 0 1
    outer loop
      vertex 3.19806 4.13223 2
      vertex 0 0 2
      vertex 4.55496 3.05014 2
    endloop
  endfacet
  facet normal 0 0 1
    outer loop
      vertex 0 0 2
      vertex 3.19806 4.13223 2
      vertex 0 10 2
    endloop
  endfacet
  facet normal 1 -0 0
    outer loop
      vertex 50 0 2
      vertex 50 10 0
      vertex 50 10 2
    endloop
  endfacet
  facet normal 1 0 0
    outer loop
      vertex 50 10 0
      vertex 50 0 2
      vertex 50 0 0
    endloop
  endfacet
  facet normal 0 1 -0
    outer loop
      vertex 40 30 0
      vertex 10 30 2
      vertex 40 30 2
    endloop
  endfacet
  facet normal 0 1 0
    outer loop
      vertex 10 30 2
      vertex 40 30 0
      vertex 10 30 0
    endloop
  endfacet
  facet normal 0 0 -1
    outer loop
      vertex 17.4635 21.5734 0
      vertex 31.7865 22.1183 0
      vertex 17.4635 8.42658 0
    endloop
  endfacet
  facet normal -0 0 -1
    outer loop
      vertex 31.7865 22.1183 0
      vertex 17.4635 21.5734 0
      vertex 18.5 23 0
    endloop
  endfacet
  facet normal 0 0 -1
    outer loop
      vertex 10 10 0
      vertex 17.4635 8.42658 0
      vertex 15.7865 7.88168 0
    endloop
  endfacet
  facet normal 0 0 -1
    outer loop
      vertex 17.4635 8.42658 0
      vertex 10 10 0
      vertex 17.4635 21.5734 0
    endloop
  endfacet
  facet normal 0 0 -1
    outer loop
      vertex 33.4635 21.5734 0
      vertex 40 10 0
      vertex 33.4635 8.42658 0
    endloop
  endfacet
  facet normal 0 0 -1
    outer loop
      vertex 40 10 0
      vertex 33.4635 21.5734 0
      vertex 34.5 23 0
    endloop
  endfacet
  facet normal 0 0 -1
    outer loop
      vertex 31.7865 7.88168 0
      vertex 33.4635 21.5734 0
      vertex 33.4635 8.42658 0
    endloop
  endfacet
  facet normal -0 0 -1
    outer loop
      vertex 33.4635 21.5734 0
      vertex 31.7865 7.88168 0
      vertex 31.7865 22.1183 0
    endloop
  endfacet
  facet normal 0 0 -1
    outer loop
      vertex 50 0 0
      vertex 47 5 0
      vertex 50 10 0
    endloop
  endfacet
  facet normal 0 0 -1
    outer loop
      vertex 50 0 0
      vertex 46.247 3.43634 0
      vertex 47 5 0
    endloop
  endfacet
  facet normal 0 0 -1
    outer loop
      vertex 50 0 0
      vertex 44.555 3.05014 0
      vertex 46.247 3.43634 0
    endloop
  endfacet
  facet normal 0 0 -1
    outer loop
      vertex 34.5 7 0
      vertex 43.1981 5.86777 0
      vertex 43.1981 4.13223 0
    endloop
  endfacet
  facet normal 0 0 -1
    outer loop
      vertex 33.4635 8.42658 0
      vertex 40 10 0
      vertex 34.5 7 0
    endloop
  endfacet
  facet normal 0 0 -1
    outer loop
      vertex 43.1981 5.86777 0
      vertex 34.5 7 0
      vertex 40 10 0
    endloop
  endfacet
  facet normal 0 0 -1
    outer loop
      vertex 33.4635 5.57341 0
      vertex 43.1981 4.13223 0
      vertex 44.555 3.05014 0
    endloop
  endfacet
  facet normal 0 0 -1
    outer loop
      vertex 33.4635 5.57341 0
      vertex 44.555 3.05014 0
      vertex 50 0 0
    endloop
  endfacet
  facet normal 0 0 -1
    outer loop
      vertex 43.1981 4.13223 0
      vertex 33.4635 5.57341 0
      vertex 34.5 7 0
    endloop
  endfacet
  facet normal 0 0 -1
    outer loop
      vertex 17.4635 5.57341 0
      vertex 33.4635 5.57341 0
      vertex 50 0 0
    endloop
  endfacet
  facet normal 0 0 -1
    outer loop
      vertex 18.5 7 0
      vertex 31.7865 7.88168 0
      vertex 31.7865 6.11832 0
    endloop
  endfacet
  facet normal 0 0 -1
    outer loop
      vertex 17.4635 8.42658 0
      vertex 31.7865 7.88168 0
      vertex 18.5 7 0
    endloop
  endfacet
  facet normal 0 0 -1
    outer loop
      vertex 31.7865 7.88168 0
      vertex 17.4635 8.42658 0
      vertex 31.7865 22.1183 0
    endloop
  endfacet
  facet normal 0 0 -1
    outer loop
      vertex 33.4635 5.57341 0
      vertex 17.4635 5.57341 0
      vertex 31.7865 6.11832 0
    endloop
  endfacet
  facet normal -0 0 -1
    outer loop
      vertex 31.7865 6.11832 0
      vertex 17.4635 5.57341 0
      vertex 18.5 7 0
    endloop
  endfacet
  facet normal 0 0 -1
    outer loop
      vertex 10 10 0
      vertex 15.7865 7.88168 0
      vertex 15.7865 6.11832 0
    endloop
  endfacet
  facet normal -0 0 -1
    outer loop
      vertex 17.4635 21.5734 0
      vertex 10 10 0
      vertex 15.7865 22.1183 0
    endloop
  endfacet
  facet normal 0 0 -1
    outer loop
      vertex 10 30 0
      vertex 15.7865 22.1183 0
      vertex 10 10 0
    endloop
  endfacet
  facet normal -0 0 -1
    outer loop
      vertex 15.7865 6.11832 0
      vertex 7 5 0
      vertex 10 10 0
    endloop
  endfacet
  facet normal 0 0 -1
    outer loop
      vertex 6.24698 3.43634 0
      vertex 15.7865 6.11832 0
      vertex 17.4635 5.57341 0
    endloop
  endfacet
  facet normal 0 0 -1
    outer loop
      vertex 0 0 0
      vertex 17.4635 5.57341 0
      vertex 50 0 0
    endloop
  endfacet
  facet normal 0 0 -1
    outer loop
      vertex 15.7865 6.11832 0
      vertex 6.24698 3.43634 0
      vertex 7 5 0
    endloop
  endfacet
  facet normal 0 0 -1
    outer loop
      vertex 17.4635 5.57341 0
      vertex 0 0 0
      vertex 6.24698 3.43634 0
    endloop
  endfacet
  facet normal -0 0 -1
    outer loop
      vertex 3.19806 4.13223 0
      vertex 0 0 0
      vertex 3.19806 5.86777 0
    endloop
  endfacet
  facet normal -0 0 -1
    outer loop
      vertex 4.55496 3.05014 0
      vertex 0 0 0
      vertex 3.19806 4.13223 0
    endloop
  endfacet
  facet normal 0 0 -1
    outer loop
      vertex 6.24698 3.43634 0
      vertex 0 0 0
      vertex 4.55496 3.05014 0
    endloop
  endfacet
  facet normal 0 0 -1
    outer loop
      vertex 46.247 6.56366 0
      vertex 50 10 0
      vertex 47 5 0
    endloop
  endfacet
  facet normal 0 0 -1
    outer loop
      vertex 44.555 6.94986 0
      vertex 50 10 0
      vertex 46.247 6.56366 0
    endloop
  endfacet
  facet normal 0 0 -1
    outer loop
      vertex 44.555 6.94986 0
      vertex 40 10 0
      vertex 50 10 0
    endloop
  endfacet
  facet normal 0 0 -1
    outer loop
      vertex 40 10 0
      vertex 44.555 6.94986 0
      vertex 43.1981 5.86777 0
    endloop
  endfacet
  facet normal 0 0 -1
    outer loop
      vertex 40 10 0
      vertex 34.5 23 0
      vertex 40 30 0
    endloop
  endfacet
  facet normal 0 0 -1
    outer loop
      vertex 33.4635 24.4266 0
      vertex 40 30 0
      vertex 34.5 23 0
    endloop
  endfacet
  facet normal 0 0 -1
    outer loop
      vertex 31.7865 23.8817 0
      vertex 40 30 0
      vertex 33.4635 24.4266 0
    endloop
  endfacet
  facet normal 0 0 -1
    outer loop
      vertex 31.7865 22.1183 0
      vertex 18.5 23 0
      vertex 31.7865 23.8817 0
    endloop
  endfacet
  facet normal 0 0 -1
    outer loop
      vertex 17.4635 24.4266 0
      vertex 31.7865 23.8817 0
      vertex 18.5 23 0
    endloop
  endfacet
  facet normal 0 0 -1
    outer loop
      vertex 31.7865 23.8817 0
      vertex 17.4635 24.4266 0
      vertex 40 30 0
    endloop
  endfacet
  facet normal 0 0 -1
    outer loop
      vertex 17.4635 24.4266 0
      vertex 10 30 0
      vertex 40 30 0
    endloop
  endfacet
  facet normal 0 0 -1
    outer loop
      vertex 15.7865 23.8817 0
      vertex 10 30 0
      vertex 17.4635 24.4266 0
    endloop
  endfacet
  facet normal 0 0 -1
    outer loop
      vertex 15.7865 22.1183 0
      vertex 10 30 0
      vertex 15.7865 23.8817 0
    endloop
  endfacet
  facet normal 0 0 -1
    outer loop
      vertex 6.24698 6.56366 0
      vertex 10 10 0
      vertex 7 5 0
    endloop
  endfacet
  facet normal 0 0 -1
    outer loop
      vertex 4.55496 6.94986 0
      vertex 10 10 0
      vertex 6.24698 6.56366 0
    endloop
  endfacet
  facet normal 0 0 -1
    outer loop
      vertex 4.55496 6.94986 0
      vertex 0 10 0
      vertex 10 10 0
    endloop
  endfacet
  facet normal 0 0 -1
    outer loop
      vertex 3.19806 5.86777 0
      vertex 0 10 0
      vertex 4.55496 6.94986 0
    endloop
  endfacet
  facet normal 0 0 -1
    outer loop
      vertex 0 10 0
      vertex 3.19806 5.86777 0
      vertex 0 0 0
    endloop
  endfacet
  facet normal 0 -1 0
    outer loop
      vertex 0 0 0
      vertex 50 0 2
      vertex 0 0 2
    endloop
  endfacet
  facet normal 0 -1 -0
    outer loop
      vertex 50 0 2
      vertex 0 0 0
      vertex 50 0 0
    endloop
  endfacet
  facet normal -0.809016 -0.587786 0
    outer loop
      vertex 18.5 7 0
      vertex 17.4635 8.42658 2
      vertex 17.4635 8.42658 0
    endloop
  endfacet
  facet normal -0.809016 -0.587786 0
    outer loop
      vertex 17.4635 8.42658 2
      vertex 18.5 7 0
      vertex 18.5 7 2
    endloop
  endfacet
  facet normal 1 -0 0
    outer loop
      vertex 15.7865 6.11832 2
      vertex 15.7865 7.88168 0
      vertex 15.7865 7.88168 2
    endloop
  endfacet
  facet normal 1 0 0
    outer loop
      vertex 15.7865 7.88168 0
      vertex 15.7865 6.11832 2
      vertex 15.7865 6.11832 0
    endloop
  endfacet
  facet normal 0.309017 -0.951056 0
    outer loop
      vertex 15.7865 7.88168 0
      vertex 17.4635 8.42658 2
      vertex 15.7865 7.88168 2
    endloop
  endfacet
  facet normal 0.309017 -0.951056 0
    outer loop
      vertex 17.4635 8.42658 2
      vertex 15.7865 7.88168 0
      vertex 17.4635 8.42658 0
    endloop
  endfacet
  facet normal -0.809017 0.587786 0
    outer loop
      vertex 17.4635 5.57341 0
      vertex 18.5 7 2
      vertex 18.5 7 0
    endloop
  endfacet
  facet normal -0.809017 0.587786 0
    outer loop
      vertex 18.5 7 2
      vertex 17.4635 5.57341 0
      vertex 17.4635 5.57341 2
    endloop
  endfacet
  facet normal 0.309017 0.951056 -0
    outer loop
      vertex 17.4635 5.57341 0
      vertex 15.7865 6.11832 2
      vertex 17.4635 5.57341 2
    endloop
  endfacet
  facet normal 0.309017 0.951056 0
    outer loop
      vertex 15.7865 6.11832 2
      vertex 17.4635 5.57341 0
      vertex 15.7865 6.11832 0
    endloop
  endfacet
  facet normal -0.809016 -0.587786 0
    outer loop
      vertex 34.5 7 0
      vertex 33.4635 8.42658 2
      vertex 33.4635 8.42658 0
    endloop
  endfacet
  facet normal -0.809016 -0.587786 0
    outer loop
      vertex 33.4635 8.42658 2
      vertex 34.5 7 0
      vertex 34.5 7 2
    endloop
  endfacet
  facet normal 1 -0 0
    outer loop
      vertex 31.7865 6.11832 2
      vertex 31.7865 7.88168 0
      vertex 31.7865 7.88168 2
    endloop
  endfacet
  facet normal 1 0 0
    outer loop
      vertex 31.7865 7.88168 0
      vertex 31.7865 6.11832 2
      vertex 31.7865 6.11832 0
    endloop
  endfacet
  facet normal 0.309017 -0.951056 0
    outer loop
      vertex 31.7865 7.88168 0
      vertex 33.4635 8.42658 2
      vertex 31.7865 7.88168 2
    endloop
  endfacet
  facet normal 0.309017 -0.951056 0
    outer loop
      vertex 33.4635 8.42658 2
      vertex 31.7865 7.88168 0
      vertex 33.4635 8.42658 0
    endloop
  endfacet
  facet normal 0.309017 0.951056 -0
    outer loop
      vertex 33.4635 5.57341 0
      vertex 31.7865 6.11832 2
      vertex 33.4635 5.57341 2
    endloop
  endfacet
  facet normal 0.309017 0.951056 0
    outer loop
      vertex 31.7865 6.11832 2
      vertex 33.4635 5.57341 0
      vertex 31.7865 6.11832 0
    endloop
  endfacet
  facet normal -0.809017 0.587786 0
    outer loop
      vertex 33.4635 5.57341 0
      vertex 34.5 7 2
      vertex 34.5 7 0
    endloop
  endfacet
  facet normal -0.809017 0.587786 0
    outer loop
      vertex 34.5 7 2
      vertex 33.4635 5.57341 0
      vertex 33.4635 5.57341 2
    endloop
  endfacet
  facet normal -0.809016 -0.587786 0
    outer loop
      vertex 18.5 23 0
      vertex 17.4635 24.4266 2
      vertex 17.4635 24.4266 0
    endloop
  endfacet
  facet normal -0.809016 -0.587786 0
    outer loop
      vertex 17.4635 24.4266 2
      vertex 18.5 23 0
      vertex 18.5 23 2
    endloop
  endfacet
  facet normal 1 -0 0
    outer loop
      vertex 15.7865 22.1183 2
      vertex 15.7865 23.8817 0
      vertex 15.7865 23.8817 2
    endloop
  endfacet
  facet normal 1 0 0
    outer loop
      vertex 15.7865 23.8817 0
      vertex 15.7865 22.1183 2
      vertex 15.7865 22.1183 0
    endloop
  endfacet
  facet normal 0.309017 -0.951056 0
    outer loop
      vertex 15.7865 23.8817 0
      vertex 17.4635 24.4266 2
      vertex 15.7865 23.8817 2
    endloop
  endfacet
  facet normal 0.309017 -0.951056 0
    outer loop
      vertex 17.4635 24.4266 2
      vertex 15.7865 23.8817 0
      vertex 17.4635 24.4266 0
    endloop
  endfacet
  facet normal -0.809017 0.587785 0
    outer loop
      vertex 17.4635 21.5734 0
      vertex 18.5 23 2
      vertex 18.5 23 0
    endloop
  endfacet
  facet normal -0.809017 0.587785 0
    outer loop
      vertex 18.5 23 2
      vertex 17.4635 21.5734 0
      vertex 17.4635 21.5734 2
    endloop
  endfacet
  facet normal 0.309017 0.951056 -0
    outer loop
      vertex 17.4635 21.5734 0
      vertex 15.7865 22.1183 2
      vertex 17.4635 21.5734 2
    endloop
  endfacet
  facet normal 0.309017 0.951056 0
    outer loop
      vertex 15.7865 22.1183 2
      vertex 17.4635 21.5734 0
      vertex 15.7865 22.1183 0
    endloop
  endfacet
  facet normal -0.809016 -0.587786 0
    outer loop
      vertex 34.5 23 0
      vertex 33.4635 24.4266 2
      vertex 33.4635 24.4266 0
    endloop
  endfacet
  facet normal -0.809016 -0.587786 0
    outer loop
      vertex 33.4635 24.4266 2
      vertex 34.5 23 0
      vertex 34.5 23 2
    endloop
  endfacet
  facet normal 1 -0 0
    outer loop
      vertex 31.7865 22.1183 2
      vertex 31.7865 23.8817 0
      vertex 31.7865 23.8817 2
    endloop
  endfacet
  facet normal 1 0 0
    outer loop
      vertex 31.7865 23.8817 0
      vertex 31.7865 22.1183 2
      vertex 31.7865 22.1183 0
    endloop
  endfacet
  facet normal 0.309017 -0.951056 0
    outer loop
      vertex 31.7865 23.8817 0
      vertex 33.4635 24.4266 2
      vertex 31.7865 23.8817 2
    endloop
  endfacet
  facet normal 0.309017 -0.951056 0
    outer loop
      vertex 33.4635 24.4266 2
      vertex 31.7865 23.8817 0
      vertex 33.4635 24.4266 0
    endloop
  endfacet
  facet normal -0.809017 0.587785 0
    outer loop
      vertex 33.4635 21.5734 0
      vertex 34.5 23 2
      vertex 34.5 23 0
    endloop
  endfacet
  facet normal -0.809017 0.587785 0
    outer loop
      vertex 34.5 23 2
      vertex 33.4635 21.5734 0
      vertex 33.4635 21.5734 2
    endloop
  endfacet
  facet normal 0.309017 0.951056 -0
    outer loop
      vertex 33.4635 21.5734 0
      vertex 31.7865 22.1183 2
      vertex 33.4635 21.5734 2
    endloop
  endfacet
  facet normal 0.309017 0.951056 0
    outer loop
      vertex 31.7865 22.1183 2
      vertex 33.4635 21.5734 0
      vertex 31.7865 22.1183 0
    endloop
  endfacet
  facet normal -1 0 0
    outer loop
      vertex 10 10 0
      vertex 10 30 2
      vertex 10 30 0
    endloop
  endfacet
  facet normal -1 -0 0
    outer loop
      vertex 10 30 2
      vertex 10 10 0
      vertex 10 10 2
    endloop
  endfacet
  facet normal 0 1 -0
    outer loop
      vertex 10 10 0
      vertex 0 10 2
      vertex 10 10 2
    endloop
  endfacet
  facet normal 0 1 0
    outer loop
      vertex 0 10 2
      vertex 10 10 0
      vertex 0 10 0
    endloop
  endfacet
  facet normal 1 -0 0
    outer loop
      vertex 40 10 2
      vertex 40 30 0
      vertex 40 30 2
    endloop
  endfacet
  facet normal 1 0 0
    outer loop
      vertex 40 30 0
      vertex 40 10 2
      vertex 40 10 0
    endloop
  endfacet
  facet normal 0 1 -0
    outer loop
      vertex 50 10 0
      vertex 40 10 2
      vertex 50 10 2
    endloop
  endfacet
  facet normal 0 1 0
    outer loop
      vertex 40 10 2
      vertex 50 10 0
      vertex 40 10 0
    endloop
  endfacet
  facet normal -0.900969 -0.433884 0
    outer loop
      vertex 7 5 0
      vertex 6.24698 6.56366 2
      vertex 6.24698 6.56366 0
    endloop
  endfacet
  facet normal -0.900969 -0.433884 0
    outer loop
      vertex 6.24698 6.56366 2
      vertex 7 5 0
      vertex 7 5 2
    endloop
  endfacet
  facet normal 1 -0 0
    outer loop
      vertex 3.19806 4.13223 2
      vertex 3.19806 5.86777 0
      vertex 3.19806 5.86777 2
    endloop
  endfacet
  facet normal 1 0 0
    outer loop
      vertex 3.19806 5.86777 0
      vertex 3.19806 4.13223 2
      vertex 3.19806 4.13223 0
    endloop
  endfacet
  facet normal -0.222521 -0.974928 0
    outer loop
      vertex 4.55496 6.94986 0
      vertex 6.24698 6.56366 2
      vertex 4.55496 6.94986 2
    endloop
  endfacet
  facet normal -0.222521 -0.974928 -0
    outer loop
      vertex 6.24698 6.56366 2
      vertex 4.55496 6.94986 0
      vertex 6.24698 6.56366 0
    endloop
  endfacet
  facet normal 0.62349 -0.781831 0
    outer loop
      vertex 3.19806 5.86777 0
      vertex 4.55496 6.94986 2
      vertex 3.19806 5.86777 2
    endloop
  endfacet
  facet normal 0.62349 -0.781831 0
    outer loop
      vertex 4.55496 6.94986 2
      vertex 3.19806 5.86777 0
      vertex 4.55496 6.94986 0
    endloop
  endfacet
  facet normal -0.900969 0.433884 0
    outer loop
      vertex 6.24698 3.43634 0
      vertex 7 5 2
      vertex 7 5 0
    endloop
  endfacet
  facet normal -0.900969 0.433884 0
    outer loop
      vertex 7 5 2
      vertex 6.24698 3.43634 0
      vertex 6.24698 3.43634 2
    endloop
  endfacet
  facet normal -0.222521 0.974928 0
    outer loop
      vertex 6.24698 3.43634 0
      vertex 4.55496 3.05014 2
      vertex 6.24698 3.43634 2
    endloop
  endfacet
  facet normal -0.222521 0.974928 0
    outer loop
      vertex 4.55496 3.05014 2
      vertex 6.24698 3.43634 0
      vertex 4.55496 3.05014 0
    endloop
  endfacet
  facet normal 0.62349 0.781831 -0
    outer loop
      vertex 4.55496 3.05014 0
      vertex 3.19806 4.13223 2
      vertex 4.55496 3.05014 2
    endloop
  endfacet
  facet normal 0.62349 0.781831 0
    outer loop
      vertex 3.19806 4.13223 2
      vertex 4.55496 3.05014 0
      vertex 3.19806 4.13223 0
    endloop
  endfacet
  facet normal -0.900969 -0.433884 0
    outer loop
      vertex 47 5 0
      vertex 46.247 6.56366 2
      vertex 46.247 6.56366 0
    endloop
  endfacet
  facet normal -0.900969 -0.433884 0
    outer loop
      vertex 46.247 6.56366 2
      vertex 47 5 0
      vertex 47 5 2
    endloop
  endfacet
  facet normal 1 -0 0
    outer loop
      vertex 43.1981 4.13223 2
      vertex 43.1981 5.86777 0
      vertex 43.1981 5.86777 2
    endloop
  endfacet
  facet normal 1 0 0
    outer loop
      vertex 43.1981 5.86777 0
      vertex 43.1981 4.13223 2
      vertex 43.1981 4.13223 0
    endloop
  endfacet
  facet normal -0.222521 -0.974928 0
    outer loop
      vertex 44.555 6.94986 0
      vertex 46.247 6.56366 2
      vertex 44.555 6.94986 2
    endloop
  endfacet
  facet normal -0.222521 -0.974928 -0
    outer loop
      vertex 46.247 6.56366 2
      vertex 44.555 6.94986 0
      vertex 46.247 6.56366 0
    endloop
  endfacet
  facet normal 0.62349 -0.781831 0
    outer loop
      vertex 43.1981 5.86777 0
      vertex 44.555 6.94986 2
      vertex 43.1981 5.86777 2
    endloop
  endfacet
  facet normal 0.62349 -0.781831 0
    outer loop
      vertex 44.555 6.94986 2
      vertex 43.1981 5.86777 0
      vertex 44.555 6.94986 0
    endloop
  endfacet
  facet normal -0.900969 0.433884 0
    outer loop
      vertex 46.247 3.43634 0
      vertex 47 5 2
      vertex 47 5 0
    endloop
  endfacet
  facet normal -0.900969 0.433884 0
    outer loop
      vertex 47 5 2
      vertex 46.247 3.43634 0
      vertex 46.247 3.43634 2
    endloop
  endfacet
  facet normal -0.222521 0.974928 0
    outer loop
      vertex 46.247 3.43634 0
      vertex 44.555 3.05014 2
      vertex 46.247 3.43634 2
    endloop
  endfacet
  facet normal -0.222521 0.974928 0
    outer loop
      vertex 44.555 3.05014 2
      vertex 46.247 3.43634 0
      vertex 44.555 3.05014 0
    endloop
  endfacet
  facet normal 0.62349 0.781831 -0
    outer loop
      vertex 44.555 3.05014 0
      vertex 43.1981 4.13223 2
      vertex 44.555 3.05014 2
    endloop
  endfacet
  facet normal 0.62349 0.781831 0
    outer loop
      vertex 43.1981 4.13223 2
      vertex 44.555 3.05014 0
      vertex 43.1981 4.13223 0
    endloop
  endfacet
endsolid OpenSCAD_Model
